<?xml version="1.0" encoding="UTF-8" standalone="no"?>
<svg
   width="757"
   height="226"
   viewBox="0 0 757 226"
   fill="none"
   version="1.1"
   id="svg95"
   sodipodi:docname="vignan_new_logo_watermark_color.svg"
   inkscape:version="1.4 (86a8ad7, 2024-10-11)"
   xmlns:inkscape="http://www.inkscape.org/namespaces/inkscape"
   xmlns:sodipodi="http://sodipodi.sourceforge.net/DTD/sodipodi-0.dtd"
   xmlns="http://www.w3.org/2000/svg"
   xmlns:svg="http://www.w3.org/2000/svg">
  <defs
     id="defs95" />
  <sodipodi:namedview
     id="namedview95"
     pagecolor="#ffffff"
     bordercolor="#999999"
     borderopacity="1"
     inkscape:showpageshadow="2"
     inkscape:pageopacity="0"
     inkscape:pagecheckerboard="0"
     inkscape:deskcolor="#d1d1d1"
     showgrid="false"
     inkscape:zoom="0.89431968"
     inkscape:cx="595.42467"
     inkscape:cy="349.42762"
     inkscape:window-width="1920"
     inkscape:window-height="991"
     inkscape:window-x="-9"
     inkscape:window-y="-9"
     inkscape:window-maximized="1"
     inkscape:current-layer="g95" />
  <mask
     id="mask0_1766_1267"
     style="mask-type:luminance"
     maskUnits="userSpaceOnUse"
     x="9"
     y="8"
     width="128"
     height="145">
    <path
       d="M137 8.60156H9V152.602H137V8.60156Z"
       fill="white"
       id="path44" />
  </mask>
  <g
     id="g95"
     transform="translate(6.7090103,8.9453471)">
    <g
       id="g97">
      <path
         d="m 172.89336,62.084634 22.5,71.000016 h 0.9 l 22.6,-71.000016 h 21.8 l -32.1,93.400216 h -25.4 l -32.1,-93.400216 z m 93.5,0 v 93.400216 h -19.7 V 62.084634 Z m 72.8,30.20002 c -0.6,-2.2 -1.5,-4.2 -2.7,-5.9 -1.2,-1.7 -2.6,-3.2 -4.2,-4.4 -1.6,-1.2 -3.5,-2.1 -5.6,-2.8 -2.1,-0.6 -4.4,-1 -7,-1 -4.8,0 -8.9,1.2 -12.6,3.6 -3.6,2.4 -6.4,5.8 -8.4,10.4 -2,4.5 -3,9.999996 -3,16.499996 0,6.5 1,12 3,16.6 2,4.6 4.8,8 8.4,10.4 3.6,2.4 7.9,3.6 12.8,3.6 4.4,0 8.3,-0.8 11.4,-2.4 3.2,-1.6 5.6,-3.9 7.3,-6.8 1.7,-2.9 2.5,-6.4 2.5,-10.4 l 4,0.6 h -24 v -14.7 h 39 v 11.8 c 0,8.2 -1.7,15.3 -5.2,21.2 -3.4,5.9 -8.2,10.4 -14.3,13.6002 -6.1,3.2 -13,4.7 -20.8,4.7 -8.7,0 -16.4,-1.9 -23,-5.8002 -6.6,-3.9 -11.8,-9.4 -15.5,-16.6 -3.7,-7.2 -5.5,-15.7 -5.5,-25.5 0,-7.6 1.1,-14.299996 3.3,-20.199996 2.2,-6 5.3,-11 9.3,-15.1 4,-4.1 8.6,-7.3 13.9,-9.4 5.3,-2.20002 11,-3.20002 17.1,-3.20002 5.3,0 10.2,0.8 14.7,2.30002 4.5,1.5 8.6,3.7 12.1,6.5 3.5,2.8 6.4,6.1 8.7,10 2.2,3.8 3.7,8.1 4.3,12.7 z m 108.4,-30.20002 v 93.400216 h -17 l -40.5,-58.800196 h -0.7 v 58.800196 h -19.7 V 62.084634 h 17.3 l 40.2,58.800016 h 0.8 V 62.084634 Z m 27.2,93.400216 h -21.1 l 32.1,-93.400216 h 25.4 l 32.1,93.400216 h -21.1 l -23.3,-72.100196 h -0.7 z m -1.3,-36.7002 h 49.8 v 15.4 h -49.8 z m 153.8,-56.700016 v 93.400216 h -17 l -40.5,-58.800196 h -0.7 v 58.800196 h -19.7 V 62.084634 h 17.3 l 40.2,58.800016 h 0.8 V 62.084634 Z m 85.6,26.90002 c -0.4,-3.7 -1.9,-6.5 -4.7,-8.6 -2.8,-2.1 -6.5,-3.1 -11.2,-3.1 -3.2,0 -5.9,0.5 -8.1,1.4 -2.2,0.9 -3.9,2.1 -5.1,3.7 -1.1,1.6 -1.7,3.4 -1.7,5.4 -0.1,1.7 0.3,3.1 1,4.4 0.8,1.2 1.9,2.3 3.2,3.2 1.4,0.9 2.9,1.7 4.7,2.3 1.8,0.6 3.7,1.2 5.7,1.6 l 8.4,1.999996 c 4.1,0.9 7.8,2.1 11.2,3.7 3.4,1.5 6.3,3.4 8.8,5.6 2.5,2.2 4.4,4.8 5.8,7.8 1.4,3 2.1,6.5 2.1,10.4 0,5.7 -1.5,10.7 -4.4,14.9 -2.9,4.2 -7,7.4 -12.4,9.7002 -5.4,2.3 -11.8,3.4 -19.4,3.4 -7.6,0 -14.1,-1.2 -19.6,-3.5 -5.5,-2.3002 -9.9,-5.7002 -13,-10.3002 -3.1,-4.6 -4.7,-10.2 -4.9,-16.9 h 19 c 0.2,3.1 1.1,5.7 2.7,7.8 1.6,2.1 3.7,3.6 6.4,4.7 2.7,1 5.7,1.6 9.1,1.6 3.4,0 6.2,-0.5 8.7,-1.5 2.5,-1 4.4,-2.3 5.8,-4.1 1.4,-1.7 2,-3.7 2,-6 0,-2.1 -0.6,-3.9 -1.9,-5.3 -1.2,-1.4 -3,-2.6 -5.4,-3.7 -2.3,-1 -5.2,-1.9 -8.6,-2.7 l -10.1,-2.6 c -7.9,-1.9 -14.1,-4.9 -18.6,-9 -4.6,-4.1 -6.8,-9.599996 -6.8,-16.499996 0,-5.7 1.5,-10.6 4.5,-14.8 3.1,-4.2 7.3,-7.5 12.6,-9.9 5.3,-2.40002 11.4,-3.60002 18.2,-3.60002 6.8,0 12.9,1.2 18.1,3.60002 5.2,2.4 9.2,5.7 12.1,9.9 2.9,4.2 4.4,9.1 4.4,14.7 z"
         fill="#ff0000"
         id="path2" />
      <path
         d="m 643.46366,56.513289 c 8.5,-0.8 12.4,-4.8 11.8,-11.9 h -7.4 v -19.3 h 19.3 v 16.3 c 0,15.9 -7.9,22.4 -22.2,22.5 z"
         fill="#ff0000"
         id="path3" />
      <g
         mask="url(#mask0_1766_1267)"
         id="g51"
         transform="translate(3.1626578,42.69588)">
        <path
           fill-rule="evenodd"
           clip-rule="evenodd"
           d="m 85.8016,63.8012 c 1.6,2.4 2.5,5.1 2.6,8 l 32.4004,10.5 c -0.7,3.4 -1.8,6.8 -3.3,10.1 l -32.4004,-10.5 c -1.8,2.3 -4.1,4 -6.8,5 v 33.8998 c -3.5,0.4 -7.1,0.4 -10.6,0 V 86.8012 c -2.7,-1 -5,-2.7 -6.8,-5 l -32.5,10.6 c -1.5,-3.2 -2.6,-6.6 -3.3,-10.1 l 32.4,-10.5 c 0.1,-2.9 1,-5.6 2.6,-8 l -20,-27.4 c 2.6,-2.4 5.5,-4.5 8.6,-6.2 l 20,27.4 c 2.7,-0.8 5.7,-0.8 8.4,0 l 20,-27.4 c 3.1004,1.7 6.0004,3.8 8.6004,6.2 z m -18.9,17.6 c 1.8,1.2 3.9,1.8 6.1,1.8 2.9,0 5.7,-1.2 7.7,-3.2 2,-2 3.2,-4.8 3.2,-7.7 0,-2.2 -0.7,-4.2 -1.8,-6 -1.2,-1.8 -2.9,-3.2 -4.9,-4 -2,-0.8 -4.2,-1 -6.3,-0.6 -2.1,0.4 -4.1,1.5 -5.6,3 -1.5,1.5 -2.6,3.4 -3,5.6 -0.4,2.1 -0.2,4.3 0.6,6.3 0.7,2 2.2,3.7 4,4.8 z m 10,-7.7 2.4,7.5 -6.3,-4.7 -6.4,4.6 2.4,-7.5 -6.3,-4.6 h 7.9 l 2.4,-7.5 2.4,7.5 h 7.9 z"
           fill="#0082ff"
           id="path45" />
        <path
           fill-rule="evenodd"
           clip-rule="evenodd"
           d="m 73.0008,50.2012 17.7,-23.2 c -11.4,-4.4 -24,-4.4 -35.4,0 z"
           fill="#8281ff"
           id="path46" />
        <path
           fill-rule="evenodd"
           clip-rule="evenodd"
           d="m 51.8016,65.5016 -27.6,9.6 c 0,-0.9 -0.1,-1.8 -0.1,-2.7 0,-11.2 3.9,-22.1 11,-30.8 z"
           fill="#8281ff"
           id="path47" />
        <path
           fill-rule="evenodd"
           clip-rule="evenodd"
           d="m 31.9023,98.7008 c 6.6,10.2002 16.8,17.6002 28.6,20.7002 -0.1,-6.8 -0.5,-22.4002 -0.6,-29.1002 z"
           fill="#8281ff"
           id="path48" />
        <path
           fill-rule="evenodd"
           clip-rule="evenodd"
           d="m 114.002,98.7012 c -6.6,10.1998 -16.7997,17.5998 -28.5997,20.6998 0,-3 0.1,-7.7 0.3,-12.7 0.1,-6.2 0.3,-12.6998 0.3,-16.4998 z"
           fill="#8281ff"
           id="path49" />
        <path
           fill-rule="evenodd"
           clip-rule="evenodd"
           d="m 121.699,75.1016 c 0,-0.9 0.1,-1.8 0.1,-2.7 0,-11.2 -3.9,-22.1 -11,-30.8 l -16.5998,23.9 z"
           fill="#8281ff"
           id="path50" />
        <path
           fill-rule="evenodd"
           clip-rule="evenodd"
           d="M 133.501,8.30078 H 13.1008 9.30078 v 3.80002 59.7 c 0,12.7 3.10002,25.1 9.00002,36.1002 5.9,11 14.4,20.3 24.7,26.8 l 25.6,16.2 c 1.4,0.9 3,1.4 4.6,1.4 1.7,0 3.3,-0.5 4.6,-1.4 l 25.6002,-16.2 c 10.3,-6.5 18.8,-15.8 24.7,-26.8 5.9,-11.0002 9,-23.5002 9,-36.1002 v -59.7 -3.80002 z m -3.5,63.20002 c 0,11.4 -2.8,22.7 -8.1,32.6002 -5.3,9.9 -12.9,18.2 -22.1002,24 l -25.6,16.2 c -0.2,0.1 -0.4,0.2 -0.6,0.2 -0.2,0 -0.4,0 -0.6,-0.2 l -25.8,-16.3 c -9.1,-5.8 -16.8,-14.1 -22,-24 -5.3,-9.9002 -8.1,-21.2002 -8.1,-32.6002 v -55.8 H 129.901 Z"
           fill="#8281ff"
           id="path51" />
      </g>
    </g>
  </g>
</svg>
